<?xml version="1.0" encoding="UTF-8"?>
<svg width="69px" height="69px" viewBox="0 0 69 69" version="1.1" xmlns="http://www.w3.org/2000/svg" xmlns:xlink="http://www.w3.org/1999/xlink">
    <!-- Generator: Sketch 51.3 (57544) - http://www.bohemiancoding.com/sketch -->
    <title>Group 67</title>
    <desc>Created with Sketch.</desc>
    <defs></defs>
    <g id="Subscription-Landing" stroke="none" stroke-width="1" fill="none" fill-rule="evenodd">
        <g id="New_Landing@2x" transform="translate(-113.000000, -3957.000000)">
            <g id="Group-17" transform="translate(0.000000, 3924.000000)">
                <g id="Group-67" transform="translate(113.000000, 33.000000)">
                    <path d="M16,0 L69,0 L69,53 C69,61.836556 61.836556,69 53,69 L0,69 L0,16 C-1.082166e-15,7.163444 7.163444,1.623249e-15 16,0 Z" id="Rectangle-29" fill="#FFFFFF"></path>
                    <path d="M12.2969183,14.8743304 C12.9983242,14.8743304 13.6120451,14.9676442 14.1380995,15.1542747 C14.6641539,15.3409052 15.0708658,15.5921347 15.3582474,15.9079709 C15.6456289,16.223807 15.8575088,16.5611724 15.9938933,16.9200771 C16.1302777,17.2789819 16.198469,17.6594152 16.198469,18.0613885 C16.198469,18.4633618 16.1302777,18.8437951 15.9938933,19.2026998 C15.8575088,19.5616045 15.6456289,19.8989699 15.3582474,20.2148061 C15.0708658,20.5306422 14.6641539,20.7818718 14.1380995,20.9685022 C13.6120451,21.1551327 12.9983242,21.2484465 12.2969183,21.2484465 L9.6374343,21.2484465 L9.6374343,24.8949004 L8.30769231,24.8949004 L8.30769231,14.8743304 L12.2969183,14.8743304 Z M12.1654053,20.0138204 C13.1590637,20.0138204 13.8580236,19.8271928 14.2623062,19.4539319 C14.6665887,19.0806709 14.868727,18.6164945 14.868727,18.0613885 C14.868727,17.5062825 14.6665887,17.042106 14.2623062,16.6688451 C13.8580236,16.2955842 13.1590637,16.1089565 12.1654053,16.1089565 L9.6374343,16.1089565 L9.6374343,20.0138204 L12.1654053,20.0138204 Z M25.0682864,14.8743304 L26.3980284,14.8743304 L26.3980284,21.1335976 C26.3980284,21.7844115 26.273823,22.3658285 26.0254084,22.8778659 C25.7769938,23.3899033 25.4457793,23.7990485 25.031755,24.1053139 C24.6177307,24.4115793 24.169617,24.6436675 23.6874005,24.8015856 C23.205184,24.9595037 22.7107976,25.0384615 22.2042267,25.0384615 C21.6976558,25.0384615 21.2032695,24.9595037 20.721053,24.8015856 C20.2388364,24.6436675 19.7907227,24.4115793 19.3766984,24.1053139 C18.9626741,23.7990485 18.6314597,23.3899033 18.3830451,22.8778659 C18.1346305,22.3658285 18.0104251,21.7844115 18.0104251,21.1335976 L18.0104251,14.8743304 L19.3401671,14.8743304 L19.3401671,21.176666 C19.3401671,22.0188957 19.6226735,22.6744852 20.1876949,23.143454 C20.7527163,23.6124229 21.4248869,23.8469038 22.2042267,23.8469038 C22.9835666,23.8469038 23.6557371,23.6124229 24.2207585,23.143454 C24.7857799,22.6744852 25.0682864,22.0188957 25.0682864,21.176666 L25.0682864,14.8743304 Z M37.1090271,22.0811013 C37.1090271,23.9569767 35.8572312,24.8949004 33.3536019,24.8949004 L29.1598002,24.8949004 L29.1598002,14.8743304 L33.2659266,14.8743304 C34.3082937,14.8743304 35.1144112,15.1088113 35.6843035,15.5777802 C36.2541958,16.046749 36.5391376,16.6784119 36.5391376,17.4727877 C36.5391376,18.5255749 36.0715407,19.2577295 35.1363329,19.6692736 L35.1363329,19.712342 C36.4514689,20.1238861 37.1090271,20.9134646 37.1090271,22.0811013 Z M30.4895422,23.6746304 L33.2220889,23.6746304 C34.1670385,23.6746304 34.8367737,23.5310706 35.2313145,23.2439469 C35.6258553,22.9568231 35.8231227,22.5500705 35.8231227,22.0236769 C35.8231227,20.9326065 34.9609909,20.3870795 33.2367015,20.3870795 L30.4895422,20.3870795 L30.4895422,23.6746304 Z M30.4895422,19.2098779 L32.9152254,19.2098779 C33.782241,19.2098779 34.3910911,19.0663181 34.7417941,18.7791943 C35.092497,18.4920706 35.2678458,18.1068519 35.2678458,17.6235269 C35.2678458,17.1402019 35.08032,16.7645539 34.7052627,16.4965717 C34.3302054,16.2285895 33.8163359,16.0946004 33.1636387,16.0946004 L30.4895422,16.0946004 L30.4895422,19.2098779 Z M45.9934571,23.5884937 L45.9934571,24.8949004 L39.2862969,24.8949004 L39.2862969,14.8743304 L40.6160389,14.8743304 L40.6160389,23.5884937 L45.9934571,23.5884937 Z M49.0328673,14.8743304 L49.0328673,24.8949004 L47.7031253,24.8949004 L47.7031253,14.8743304 L49.0328673,14.8743304 Z M59.7730911,16.9559674 C58.769691,16.3051535 57.6640192,15.9797514 56.4560424,15.9797514 C55.2480656,15.9797514 54.3031302,16.3434361 53.6212078,17.0708164 C52.9392854,17.7981966 52.5983294,18.7361202 52.5983294,19.8846154 C52.5983294,21.0331105 52.9392854,21.9710341 53.6212078,22.6984144 C54.3031302,23.4257947 55.2480656,23.7894793 56.4560424,23.7894793 C57.6640192,23.7894793 58.769691,23.4640772 59.7730911,22.8132633 L59.8461538,22.8132633 L59.8461538,24.1053139 C58.794045,24.7274154 57.6396652,25.0384615 56.3829797,25.0384615 C54.8924922,25.0384615 53.6674857,24.5718924 52.7079235,23.6387401 C51.7483613,22.7055878 51.2685874,21.4542254 51.2685874,19.8846154 C51.2685874,18.3150054 51.7483613,17.063643 52.7079235,16.1304907 C53.6674857,15.1973384 54.8924922,14.7307692 56.3829797,14.7307692 C57.6396652,14.7307692 58.794045,15.0418153 59.8461538,15.6639169 L59.8461538,16.9559674 L59.7730911,16.9559674 Z" id="PUBLIC" fill="#2F3E51"></path>
                    <path d="M9.652074,31.8809728 C9.652074,32.2638045 9.80891696,32.5796359 10.1226076,32.8284765 C10.4362982,33.0773172 10.8271608,33.2519815 11.2952072,33.3524748 C11.7632535,33.4529681 12.2736155,33.5773866 12.8263085,33.7257339 C13.3790016,33.8740812 13.8893636,34.0343895 14.3574099,34.2066638 C14.8254562,34.3789381 15.2163189,34.6636649 15.5300095,35.0608528 C15.8437001,35.4580407 16.0005431,35.9533218 16.0005431,36.5467109 C16.0005431,37.3697991 15.6495136,38.0421372 14.9474441,38.5637454 C14.2453746,39.0853537 13.2669733,39.3461538 12.0122107,39.3461538 C10.7574482,39.3461538 9.56245423,39.0877463 8.4271929,38.5709235 L8.4271929,37.2932291 L8.50188077,37.2932291 C9.53755777,37.848335 10.7176143,38.1258839 12.0420859,38.1258839 C13.7848116,38.1258839 14.6561614,37.5707862 14.6561614,36.4605742 C14.6561614,35.9150391 14.2329344,35.5130718 13.3864676,35.2546604 C13.0180056,35.1398109 12.609716,35.0297484 12.1615865,34.9244697 C11.713457,34.819191 11.2628447,34.6947725 10.809736,34.5512106 C10.3566273,34.4076487 9.94335856,34.2377697 9.56991734,34.0415685 C9.19647611,33.8453672 8.89274847,33.5726037 8.6587253,33.2232698 C8.42470214,32.8739358 8.30769231,32.4600052 8.30769231,31.9814656 C8.30769231,31.1488066 8.64876351,30.4501492 9.33091615,29.8854725 C10.0130688,29.3207957 10.93421,29.0384615 12.0943674,29.0384615 C13.2545248,29.0384615 14.3026341,29.2107332 15.2387268,29.5552818 L15.2387268,30.7755517 L15.1341638,30.7755517 C14.1980711,30.4118616 13.299336,30.2300193 12.4379316,30.2300193 C11.5765272,30.2300193 10.8968743,30.3759717 10.3989527,30.6678809 C9.90103108,30.95979 9.652074,31.36415 9.652074,31.8809728 Z M22.1697613,29.1820227 C22.8867684,29.1820227 23.5141403,29.2753365 24.0518956,29.461967 C24.589651,29.6485975 25.0054093,29.899827 25.2991831,30.2156632 C25.5929569,30.5314993 25.8095495,30.8688647 25.9489676,31.2277694 C26.0883856,31.5866742 26.1580936,31.9671075 26.1580936,32.3690808 C26.1580936,32.7710541 26.0883856,33.1514874 25.9489676,33.5103921 C25.8095495,33.8692968 25.5929569,34.2066622 25.2991831,34.5224984 C25.0054093,34.8383346 24.589651,35.0895641 24.0518956,35.2761946 C23.5141403,35.462825 22.8867684,35.5561388 22.1697613,35.5561388 L19.4511227,35.5561388 L19.4511227,39.2025927 L18.0918035,39.2025927 L18.0918035,29.1820227 L22.1697613,29.1820227 Z M22.0353231,34.3215127 C23.0510832,34.3215127 23.7655901,34.1348851 24.178865,33.7616242 C24.59214,33.3883633 24.7987744,32.9241868 24.7987744,32.3690808 C24.7987744,31.8139748 24.59214,31.3497983 24.178865,30.9765374 C23.7655901,30.6032765 23.0510832,30.4166488 22.0353231,30.4166488 L19.4511227,30.4166488 L19.4511227,34.3215127 L22.0353231,34.3215127 Z M35.3148267,30.4022927 L29.44436,30.4022927 L29.44436,33.5749946 L34.777074,33.5749946 L34.777074,34.7952646 L29.44436,34.7952646 L29.44436,37.9823227 L35.3148267,37.9823227 L35.3148267,39.2025927 L28.0850407,39.2025927 L28.0850407,29.1820227 L35.3148267,29.1820227 L35.3148267,30.4022927 Z M45.3528766,29.1820227 L46.7121959,29.1820227 L46.7121959,39.2025927 L45.0391876,39.2025927 L39.0044075,30.9478252 L38.9745324,30.9478252 L38.9745324,39.2025927 L37.6152131,39.2025927 L37.6152131,29.1820227 L39.2882214,29.1820227 L45.3080639,37.4224341 L45.3528766,37.4224341 L45.3528766,29.1820227 Z M53.2847286,29.1820227 C54.1411538,29.1820227 54.9154103,29.3279751 55.6075214,29.6198843 C56.2996325,29.9117935 56.8548067,30.3017974 57.2730609,30.7899079 C58.1294861,31.7756995 58.5576923,32.9098215 58.5576923,34.1923077 C58.5576923,35.2163825 58.2788604,36.1495208 57.7211881,36.9917506 C57.1137238,37.9201175 56.2722488,38.561351 55.1967381,38.9154703 C54.6091906,39.1068862 53.9718604,39.2025927 53.2847286,39.2025927 L49.6100853,39.2025927 L49.6100853,29.1820227 L53.2847286,29.1820227 Z M53.1204153,37.9823227 C54.3552609,37.9823227 55.3461101,37.632994 56.0929925,36.9343261 C56.839875,36.2356582 57.2133106,35.3216612 57.2133106,34.1923077 C57.2133106,33.0629541 56.839875,32.1489571 56.0929925,31.4502893 C55.3461101,30.7516214 54.3552609,30.4022927 53.1204153,30.4022927 L50.9694046,30.4022927 L50.9694046,37.9823227 L53.1204153,37.9823227 Z" id="SPEND" fill="#2F3E51"></path>
                    <path d="M8.30769231,43.489715 L15.1147651,43.489715 L15.1147651,44.709985 L9.62007287,44.709985 L9.62007287,47.882687 L14.6100034,47.882687 L14.6100034,49.1029569 L9.62007287,49.1029569 L9.62007287,53.510285 L8.30769231,53.510285 L8.30769231,43.489715 Z M21.5612938,43.3461538 C23.0803939,43.3461538 24.2966172,43.8246863 25.2100002,44.7817656 C26.1233832,45.7388449 26.5944895,46.9782439 26.6233331,48.5 C26.5944895,50.0217561 26.1233832,51.2611551 25.2100002,52.2182344 C24.2966172,53.1753137 23.0803939,53.6538462 21.5612938,53.6538462 C20.0421937,53.6538462 18.8259704,53.1753137 17.9125874,52.2182344 C16.9992044,51.2611551 16.5280982,50.0217561 16.4992545,48.5 C16.5280982,46.9782439 16.9992044,45.7388449 17.9125874,44.7817656 C18.8259704,43.8246863 20.0421937,43.3461538 21.5612938,43.3461538 Z M18.8139477,51.3209771 C19.4821594,52.0627135 20.3955287,52.4335762 21.5540829,52.4335762 C22.7126371,52.4335762 23.62841,52.0627135 24.3014291,51.3209771 C24.9744481,50.5792406 25.3109526,49.6389243 25.3109526,48.5 C25.3109526,47.3610757 24.9744481,46.4207594 24.3014291,45.6790229 C23.62841,44.9372865 22.7126371,44.5664238 21.5540829,44.5664238 C20.3955287,44.5664238 19.4821594,44.9372865 18.8139477,45.6790229 C18.1457359,46.4207594 17.8116351,47.3610757 17.8116351,48.5 C17.8116351,49.6389243 18.1457359,50.5792406 18.8139477,51.3209771 Z M36.5743506,52.2756589 L36.5743506,52.6202057 C36.5743506,52.9264711 36.6560731,53.2040199 36.8195206,53.4528605 L36.8195206,53.510285 L35.4638747,53.510285 C35.3292709,53.2901567 35.26197,53.0317492 35.26197,52.7350546 L35.26197,52.5053568 C35.26197,51.6248438 35.1706331,51.0218929 34.9879565,50.696486 C34.9014255,50.5242117 34.7860525,50.3423694 34.6418341,50.1509535 C34.3437829,49.7872634 33.8294117,49.605421 33.0987053,49.605421 L30.1134001,49.605421 L30.1134001,53.510285 L28.8010196,53.510285 L28.8010196,43.489715 L32.8102701,43.489715 C34.1178499,43.489715 35.0985201,43.7576932 35.75231,44.2936576 C36.4060999,44.829622 36.73299,45.5330647 36.73299,46.4040069 C36.73299,46.9878252 36.5743522,47.5118183 36.2570718,47.9760017 C35.9397914,48.4401852 35.4782995,48.7775506 34.8725824,48.988108 L34.8725824,49.0168202 C36.0071002,49.3135148 36.5743506,50.3997835 36.5743506,52.2756589 Z M32.7237395,48.3707949 C33.5505914,48.3707949 34.2067752,48.2080939 34.6923103,47.882687 C35.1778455,47.55728 35.4206094,47.1026742 35.4206094,46.5188558 C35.4206094,45.9350374 35.2114959,45.4900022 34.7932627,45.1837369 C34.3750294,44.8774715 33.6611592,44.7243411 32.6516307,44.7243411 L30.1134001,44.7243411 L30.1134001,48.3707949 L32.7237395,48.3707949 Z M45.9629192,43.489715 L47.2752998,43.489715 L47.2752998,49.7489822 C47.2752998,50.3997961 47.152716,50.9812131 46.9075448,51.4932505 C46.6623736,52.0052879 46.3354835,52.4144332 45.9268648,52.7206985 C45.5182461,53.0269639 45.0759831,53.2590521 44.6000625,53.4169702 C44.1241419,53.5748883 43.6362104,53.6538462 43.1362534,53.6538462 C42.6362964,53.6538462 42.1483649,53.5748883 41.6724443,53.4169702 C41.1965237,53.2590521 40.7542607,53.0269639 40.345642,52.7206985 C39.9370233,52.4144332 39.6101332,52.0052879 39.364962,51.4932505 C39.1197908,50.9812131 38.997207,50.3997961 38.997207,49.7489822 L38.997207,43.489715 L40.3095876,43.489715 L40.3095876,49.7920506 C40.3095876,50.6342803 40.5884056,51.2898698 41.1460499,51.7588387 C41.7036942,52.2278075 42.3670888,52.4622884 43.1362534,52.4622884 C43.905418,52.4622884 44.5688125,52.2278075 45.1264569,51.7588387 C45.6841012,51.2898698 45.9629192,50.6342803 45.9629192,49.7920506 L45.9629192,43.489715 Z M59.0867248,43.489715 L61.1346154,43.489715 L61.1346154,53.510285 L59.8222348,53.510285 L59.8222348,44.8679023 L59.7933913,44.8679023 L56.2456372,53.510285 L54.8899914,53.510285 L51.3278156,44.8679023 L51.3133938,44.8679023 L51.3133938,53.510285 L50.0010133,53.510285 L50.0010133,43.489715 L52.0489038,43.489715 L55.5533926,52.0603171 L55.5822361,52.0603171 L59.0867248,43.489715 Z" id="FORUM" fill="#2F3E51"></path>
                </g>
            </g>
        </g>
    </g>
</svg>